<?xml version="1.0" encoding="UTF-8" standalone="no"?>
<!-- Created with Inkscape (http://www.inkscape.org/) -->

<svg
   width="210mm"
   height="297mm"
   viewBox="0 0 210 297"
   version="1.1"
   id="svg1"
   xml:space="preserve"
   inkscape:version="1.4.2 (2aeb623e1d, 2025-05-12)"
   sodipodi:docname="decentralized.svg"
   xmlns:inkscape="http://www.inkscape.org/namespaces/inkscape"
   xmlns:sodipodi="http://sodipodi.sourceforge.net/DTD/sodipodi-0.dtd"
   xmlns="http://www.w3.org/2000/svg"
   xmlns:svg="http://www.w3.org/2000/svg"><sodipodi:namedview
     id="namedview1"
     pagecolor="#ffffff"
     bordercolor="#cccccc"
     borderopacity="1"
     inkscape:showpageshadow="0"
     inkscape:pageopacity="1"
     inkscape:pagecheckerboard="0"
     inkscape:deskcolor="#d1d1d1"
     inkscape:document-units="mm"
     inkscape:zoom="0.46502525"
     inkscape:cx="395.67744"
     inkscape:cy="561.25984"
     inkscape:window-width="1366"
     inkscape:window-height="702"
     inkscape:window-x="0"
     inkscape:window-y="29"
     inkscape:window-maximized="1"
     inkscape:current-layer="layer1"><inkscape:page
       x="0"
       y="0"
       width="210"
       height="297"
       id="page2"
       margin="0"
       bleed="0" /></sodipodi:namedview><defs
     id="defs1" /><g
     inkscape:label="Layer 1"
     inkscape:groupmode="layer"
     id="layer1"><g
       transform="matrix(12.45098,0,0,12.45098,36.300835,48.737509)"
       fill="#434343"
       id="g2"
       style="fill:#a4ccd9;fill-opacity:1;fill-rule:evenodd;stroke:none;stroke-width:1"><rect
         x="6"
         y="11"
         width="0.92199999"
         height="1.959"
         class="si-glyph-fill"
         id="rect1"
         style="fill:#a4ccd9;fill-opacity:1" /><rect
         x="4"
         y="8"
         width="0.93800002"
         height="1.974"
         class="si-glyph-fill"
         id="rect2"
         style="fill:#a4ccd9;fill-opacity:1" /><path
         d="m 6.296,4.779 c 0.858,-1 1.47,-3.257 1.47,-4.074 0,-1.726 -1.029,0.44 -2.298,0.44 -1.271,0 -2.298,-2.188 -2.298,-0.44 0,0.831 0.629,3.148 1.512,4.123 -2.608,0.74 -4.664,4.494 -4.664,7.794 0,2.918 2.455,3.364 5.482,3.364 3.027,0 5.481,-0.486 5.481,-3.364 0,-3.006 -2.004,-7.201 -4.685,-7.843 z m 1.735,8.268 h -1 v 0.984 h -1 v 1.031 H 4.969 v -1.031 h -1 V 13.047 L 3.982,13.031 H 2.969 v -1.062 h 1.047 v 1.02 l 0.016,-0.02 H 4.97 V 11.031 H 4 V 10.047 H 2.953 V 7.985 H 4 V 6.969 H 4.969 V 5.938 h 1.062 v 1.031 h 1 v 1 H 8.015 V 9.031 H 6.968 V 8.01 L 6.952,8.016 H 6.03 v 1.953 h 1.016 v 1.016 H 8.03 v 2.062 z"
         class="si-glyph-fill"
         id="path2"
         style="fill:#a4ccd9;fill-opacity:1" /></g></g></svg>
