<?xml version="1.0" encoding="UTF-8" standalone="no"?>
<!-- Created with Inkscape (http://www.inkscape.org/) -->

<svg
   width="210mm"
   height="297mm"
   viewBox="0 0 210 297"
   version="1.1"
   id="svg1"
   xml:space="preserve"
   inkscape:version="1.4.2 (2aeb623e1d, 2025-05-12)"
   sodipodi:docname="decentralized.svg"
   inkscape:export-filename="../f6fa6968/instant_payment.svg"
   inkscape:export-xdpi="96"
   inkscape:export-ydpi="96"
   xmlns:inkscape="http://www.inkscape.org/namespaces/inkscape"
   xmlns:sodipodi="http://sodipodi.sourceforge.net/DTD/sodipodi-0.dtd"
   xmlns="http://www.w3.org/2000/svg"
   xmlns:svg="http://www.w3.org/2000/svg"><sodipodi:namedview
     id="namedview1"
     pagecolor="#ffffff"
     bordercolor="#cccccc"
     borderopacity="1"
     inkscape:showpageshadow="0"
     inkscape:pageopacity="1"
     inkscape:pagecheckerboard="0"
     inkscape:deskcolor="#d1d1d1"
     inkscape:document-units="mm"
     inkscape:zoom="0.46502525"
     inkscape:cx="396.75265"
     inkscape:cy="217.19251"
     inkscape:window-width="1366"
     inkscape:window-height="702"
     inkscape:window-x="0"
     inkscape:window-y="29"
     inkscape:window-maximized="1"
     inkscape:current-layer="layer1"><inkscape:page
       x="0"
       y="0"
       width="210"
       height="297"
       id="page2"
       margin="0"
       bleed="0" /></sodipodi:namedview><defs
     id="defs1"><rect
       x="73.114311"
       y="359.12027"
       width="690.2851"
       height="311.81104"
       id="rect21" /><style
       id="style1">.cls-1{fill:none;stroke:#000000;stroke-linecap:round;stroke-linejoin:round;}</style><style
       id="style1-1">.cls-1{fill:none;stroke:#020202;stroke-miterlimit:10;stroke-width:1.91px;}</style></defs><g
     inkscape:label="Layer 1"
     inkscape:groupmode="layer"
     id="layer1"><text
       xml:space="preserve"
       transform="matrix(0.10754895,0,0,0.14367304,115.9844,77.482125)"
       id="text21"
       style="font-style:normal;font-variant:normal;font-weight:normal;font-stretch:normal;font-size:210.518px;line-height:1.2;font-family:'Bowlby One SC';-inkscape-font-specification:'Bowlby One SC, Normal';font-variant-ligatures:normal;font-variant-caps:normal;font-variant-numeric:normal;font-variant-east-asian:normal;text-align:center;letter-spacing:10px;word-spacing:0.02px;writing-mode:lr-tb;direction:ltr;white-space:pre;shape-inside:url(#rect21);display:inline;opacity:1;fill:#000000;fill-opacity:1;stroke-width:2.12849"><tspan
         x="126.23241"
         y="531.65961"
         id="tspan1">port</tspan></text><text
       xml:space="preserve"
       style="font-style:normal;font-variant:normal;font-weight:normal;font-stretch:normal;font-size:26.4176px;line-height:1.2;font-family:'Bowlby One SC';-inkscape-font-specification:'Bowlby One SC, Normal';font-variant-ligatures:normal;font-variant-caps:normal;font-variant-numeric:normal;font-variant-east-asian:normal;text-align:center;letter-spacing:1.25488px;word-spacing:0.00250977px;writing-mode:lr-tb;direction:ltr;text-anchor:middle;opacity:1;fill:#000000;fill-opacity:1;stroke-width:0.264583"
       x="91.41922"
       y="143.66063"
       id="text23"
       transform="scale(0.93289108,1.0719365)"><tspan
         sodipodi:role="line"
         id="tspan23"
         style="font-style:normal;font-variant:normal;font-weight:normal;font-stretch:normal;font-size:26.4176px;font-family:'Bowlby One SC';-inkscape-font-specification:'Bowlby One SC, Normal';font-variant-ligatures:normal;font-variant-caps:normal;font-variant-numeric:normal;font-variant-east-asian:normal;fill:#000000;fill-opacity:1;stroke-width:0.264583"
         x="92.046661"
         y="143.66063">Trust</tspan></text><g
       style="fill:#000000;stroke-width:6.16761"
       id="g23"
       transform="matrix(1.2299674,0,0,0.9351429,7.6186835,124.81898)"><g
         id="g2"
         style="stroke-width:6.16761">
	<path
   d="m 29.6,27.7 c -1.4,-1.1 -3.6,-1.1 -5,0 0,0 -0.1,0 -0.1,0 L 25.9,24.2 15.9,20 6,24.2 7.4,27.7 c 0,0 -0.1,0 -0.1,0 -1.4,-1.1 -3.6,-1.1 -5,0 -0.4,0.3 -0.5,1 -0.1,1.4 0.3,0.4 1,0.5 1.4,0.1 0.7,-0.5 1.8,-0.5 2.5,0 0.7,0.6 1.6,0.8 2.5,0.8 0.9,0 1.8,-0.3 2.5,-0.8 0.7,-0.5 1.8,-0.5 2.5,0 1.4,1.1 3.6,1.1 5,0 0.7,-0.5 1.8,-0.5 2.5,0 1.4,1.1 3.6,1.1 5,0 0.7,-0.5 1.8,-0.5 2.5,0 0.4,0.3 1.1,0.3 1.4,-0.1 0.1,-0.4 0.1,-1 -0.4,-1.4 z"
   id="path1"
   style="stroke-width:6.16761" />
	<path
   d="m 5.3,22.4 10.3,-4.3 c 0,0 0,0 0,0 0.1,0 0.2,-0.1 0.4,-0.1 0.1,0 0.3,0 0.4,0.1 0,0 0,0 0,0 l 10.3,4.3 1.2,-3 c 0.1,-0.3 0.1,-0.5 0,-0.8 -0.1,-0.2 -0.3,-0.4 -0.6,-0.5 L 24,16.8 V 11 C 24,9.3 22.7,8 21,8 H 19 V 4 C 19,3.7 18.9,3.5 18.7,3.3 17.2,1.8 14.8,1.8 13.3,3.3 13.1,3.5 13,3.7 13,4 V 8 H 11 C 9.3,8 8,9.3 8,11 v 5.8 L 4.7,18 C 4.4,18.1 4.2,18.3 4.1,18.5 4,18.7 4,19 4.1,19.3 Z M 12,11 h 8 c 0.6,0 1,0.4 1,1 0,0.6 -0.4,1 -1,1 h -8 c -0.6,0 -1,-0.4 -1,-1 0,-0.6 0.4,-1 1,-1 z"
   id="path2"
   style="stroke-width:6.16761" />
</g></g><g
       transform="matrix(0.68050586,0,0,0.92942832,22.500709,153.53089)"
       fill="#434343"
       id="g5"
       style="fill:#000000;fill-opacity:1;fill-rule:evenodd;stroke:none;stroke-width:15.656"><ellipse
         cx="12.473"
         cy="5.973"
         rx="3.473"
         ry="1.973"
         class="si-glyph-fill"
         id="ellipse1"
         style="fill:#000000;fill-opacity:1;stroke-width:15.656" /><path
         d="M 12.525,9.081 C 10.041,9.081 9.052,8.04 9.052,7.437 v 2.583 c 0,1.09 1.555,1.972 3.473,1.972 1.92,0 3.475,-0.882 3.475,-1.972 V 7.499 c 0,0.604 -0.99,1.582 -3.475,1.582 z"
         class="si-glyph-fill"
         id="path1-1"
         style="fill:#000000;fill-opacity:1;stroke-width:15.656" /><path
         d="m 12.525,13.072 c -2.222,0 -3.473,-1.001 -3.473,-1.604 v 2.559 C 9.052,15.117 10.607,16 12.525,16 14.445,16 16,15.117 16,14.027 v -2.59 c 0,0.603 -1.252,1.635 -3.475,1.635 z"
         class="si-glyph-fill"
         id="path2-5"
         style="fill:#000000;fill-opacity:1;stroke-width:15.656" /><ellipse
         cx="3.937"
         cy="1.973"
         rx="3.937"
         ry="1.973"
         class="si-glyph-fill"
         id="ellipse2"
         style="fill:#000000;fill-opacity:1;stroke-width:15.656" /><path
         d="M 4.062,5.081 C 1.247,5.081 0.125,4.04 0.125,3.437 V 6.02 c 0,1.09 1.763,1.972 3.937,1.972 C 6.238,7.992 8,7.11 8,6.02 V 3.499 C 8,4.103 6.877,5.081 4.062,5.081 Z"
         class="si-glyph-fill"
         id="path3"
         style="fill:#000000;fill-opacity:1;stroke-width:15.656" /><path
         d="M 4.062,9.072 C 1.543,9.072 0.125,8.071 0.125,7.468 v 2.559 C 0.125,11.117 1.888,12 4.062,12 6.238,12 8,11.117 8,10.027 V 7.437 C 8,8.04 6.58,9.072 4.062,9.072 Z"
         class="si-glyph-fill"
         id="path4"
         style="fill:#000000;fill-opacity:1;stroke-width:15.656" /><path
         d="m 4.062,13.072 c -2.519,0 -3.937,-1.001 -3.937,-1.604 v 2.559 C 0.125,15.117 1.888,16 4.062,16 6.238,16 8,15.117 8,14.027 v -2.59 c 0,0.603 -1.42,1.635 -3.938,1.635 z"
         class="si-glyph-fill"
         id="path5"
         style="fill:#000000;fill-opacity:1;stroke-width:15.656" /></g></g></svg>
