<?xml version="1.0" encoding="UTF-8" standalone="no"?>
<!-- Created with Inkscape (http://www.inkscape.org/) -->

<svg
   width="210mm"
   height="297mm"
   viewBox="0 0 210 297"
   version="1.1"
   id="svg1"
   xml:space="preserve"
   inkscape:version="1.4.2 (2aeb623e1d, 2025-05-12)"
   sodipodi:docname="decentralized.svg"
   inkscape:export-filename="escrow_update.svg"
   inkscape:export-xdpi="96"
   inkscape:export-ydpi="96"
   xmlns:inkscape="http://www.inkscape.org/namespaces/inkscape"
   xmlns:sodipodi="http://sodipodi.sourceforge.net/DTD/sodipodi-0.dtd"
   xmlns="http://www.w3.org/2000/svg"
   xmlns:svg="http://www.w3.org/2000/svg"><sodipodi:namedview
     id="namedview1"
     pagecolor="#ffffff"
     bordercolor="#cccccc"
     borderopacity="1"
     inkscape:showpageshadow="0"
     inkscape:pageopacity="1"
     inkscape:pagecheckerboard="0"
     inkscape:deskcolor="#d1d1d1"
     inkscape:document-units="mm"
     inkscape:zoom="0.46502525"
     inkscape:cx="395.67744"
     inkscape:cy="561.25984"
     inkscape:window-width="1366"
     inkscape:window-height="702"
     inkscape:window-x="0"
     inkscape:window-y="29"
     inkscape:window-maximized="1"
     inkscape:current-layer="layer1"><inkscape:page
       x="0"
       y="0"
       width="210"
       height="297"
       id="page2"
       margin="0"
       bleed="0" /></sodipodi:namedview><defs
     id="defs1"><style
       id="style1">.cls-1{fill:none;stroke:#000000;stroke-linecap:round;stroke-linejoin:round;}</style></defs><g
     inkscape:label="Layer 1"
     inkscape:groupmode="layer"
     id="layer1"><g
       id="g3"
       transform="matrix(4.4097222,0,0,4.4097222,-0.97144725,42.862498)"
       style="fill:#8dbcc7;fill-opacity:1"><path
         class="cls-1"
         d="M 7,28 A 5.67,5.67 0 0 1 5.52,23.47 c 0.19,-1.48 5.12,-11.86 6.11,-14 a 0.78,0.78 0 0 1 1.45,0 l 6.08,14.11 v 0 A 6.86,6.86 0 0 1 12.3,30.44 7.31,7.31 0 0 1 7,28 Z m 28.73,5.56 a 7.27,7.27 0 0 1 -5.41,-2.45 5.65,5.65 0 0 1 -1.49,-4.52 c 0.2,-1.48 5.12,-11.87 6.12,-14 a 0.79,0.79 0 0 1 0.72,-0.46 0.82,0.82 0 0 1 0.73,0.49 l 6.08,14.1 v 0 a 6.88,6.88 0 0 1 -6.75,6.87 z"
         id="path1"
         style="fill:#8dbcc7;fill-opacity:1" /><line
         class="cls-1"
         x1="8.8900003"
         y1="6.0500002"
         x2="39.610001"
         y2="10.05"
         id="line1"
         style="fill:#8dbcc7;fill-opacity:1" /><line
         class="cls-1"
         x1="24.25"
         y1="37.169998"
         x2="24.25"
         y2="8.0500002"
         id="line2"
         style="fill:#8dbcc7;fill-opacity:1" /><line
         class="cls-1"
         x1="34.919998"
         y1="41.950001"
         x2="24.25"
         y2="37.169998"
         id="line3"
         style="fill:#8dbcc7;fill-opacity:1" /><line
         class="cls-1"
         x1="13.58"
         y1="41.950001"
         x2="24.25"
         y2="37.169998"
         id="line4"
         style="fill:#8dbcc7;fill-opacity:1" /></g></g></svg>
